<svg xmlns="http://www.w3.org/2000/svg" width="18" height="10" viewBox="0 0 18 10" fill="none">
  <path d="M 18 5 L 18.707 5.707 C 19.098 5.317 19.098 4.683 18.707 4.293 L 18 5 Z M 13.707 -0.707 C 13.317 -1.098 12.683 -1.098 12.293 -0.707 C 11.902 -0.317 11.902 0.317 12.293 0.707 L 13 0 L 13.707 -0.707 Z M 12.293 9.293 C 11.902 9.683 11.902 10.317 12.293 10.707 C 12.683 11.098 13.317 11.098 13.707 10.707 L 13 10 L 12.293 9.293 Z M 0 4 C -0.552 4 -1 4.448 -1 5 C -1 5.552 -0.552 6 0 6 L 0 5 L 0 4 Z M 18 5 L 18.707 4.293 L 13.707 -0.707 L 13 0 L 12.293 0.707 L 17.293 5.707 L 18 5 Z M 18 5 L 17.293 4.293 L 12.293 9.293 L 13 10 L 13.707 10.707 L 18.707 5.707 L 18 5 Z M 18 5 L 18 4 L 0 4 L 0 5 L 0 6 L 18 6 L 18 5 Z" fill="currentColor" fill-rule="nonzero"></path>
</svg>