<svg xmlns="http://www.w3.org/2000/svg" width="23.200" height="25.467" viewBox="0 0 23.200 25.467" fill="none">
  <path d="M 16.386 13.634 C 16.827 14.392 22.519 17.039 23.151 18.415 C 23.351 18.853 22.89 24.386 22.647 24.96 C 22.472 25.383 22.694 25.578 22.015 25.402 L 0.101 10.584 C -0.196 10.056 0.234 4.34 0.48 3.933 C 0.792 3.413 8.222 -0.016 9.093 0 C 9.675 0.008 16.48 4.539 16.628 4.977 C 17.343 7.073 15.64 12.351 16.382 13.63 L 16.386 13.634 Z M 7.71 7.065 C 7.319 6.103 8.503 2.553 7.507 2.369 C 7.167 2.307 3.491 4.207 3.413 4.528 C 3.234 5.267 7.116 7.64 7.706 7.065 L 7.71 7.065 Z M 9.273 2.764 C 9.691 3.941 8.714 7.996 9.05 8.625 C 9.276 9.047 13.835 12.21 14.144 12.152 C 14.753 12.031 15.136 6.24 14.956 5.9 C 14.62 5.267 9.862 2.19 9.269 2.764 L 9.273 2.764 Z" fill="currentColor" fill-rule="nonzero"></path>
</svg>