<svg xmlns="http://www.w3.org/2000/svg" width="16.897" height="14.800" viewBox="0 0 16.897 14.800" fill="none">
  <path d="M 0.179 9.682 C -0.579 8.386 1.346 2.819 0.878 0.982 C 0.866 0.646 1.214 0.053 1.471 0.002 C 2.276 -0.158 13.859 7.704 15.3 8.808 C 15.726 9.135 17.007 10.193 16.89 10.723 C 16.788 11.18 8.958 14.8 8.489 14.8 C 8.021 14.8 0.425 10.099 0.179 9.678 L 0.179 9.682 Z M 7.513 12.096 C 7.017 10.485 8.278 7.107 7.708 5.866 C 7.4 5.191 2.776 1.992 2.44 2.343 C 2.35 3.713 1.546 7.903 2.128 8.897 C 2.288 9.17 7.298 12.327 7.513 12.096 Z" fill="currentColor" fill-rule="nonzero"></path>
</svg>