<svg xmlns="http://www.w3.org/2000/svg" width="1018.998" height="301.991" viewBox="0 0 1018.998 301.991" fill="none">
  <path d="M 992.186 74.851 L 1016.701 74.851 C 1017.499 74.851 1018.403 77.152 1018.191 78.117 C 1016.105 126.784 1020.787 177.449 1018.191 225.879 C 1016.201 262.846 993.916 293.773 955.709 300.674 C 953.19 301.128 938.346 303.429 938.346 300.617 L 938.346 278.371 C 971.361 279.64 996.396 252.726 994.099 220.625 C 993.213 219.67 982.83 227.849 980.937 228.956 C 940.816 252.433 888.419 234.844 871.536 192.207 C 869.892 188.07 866.229 176.748 866.229 172.819 L 866.229 74.842 L 890.746 74.842 C 890.855 74.845 892.188 76.158 892.188 76.262 L 892.188 178.5 C 892.188 184.038 901.427 197.243 905.619 201.247 C 928.251 222.85 966.217 220.19 983.744 193.855 C 987.003 188.951 992.176 177.534 992.176 171.863 L 992.176 74.832 L 992.186 74.851 Z M 464.366 52.132 L 512.438 52.132 L 512.438 76.744 L 464.366 76.744 L 463.366 169.081 C 465.558 196.647 490.421 217.228 518.206 215.902 L 518.206 239.568 C 485.518 240.96 453.338 219.604 443.186 188.951 C 442.205 185.998 439.369 176.257 439.369 173.776 L 439.369 14.266 L 464.366 14.266 L 464.366 52.132 Z M 610.031 52.143 C 622.241 52.143 645.325 65.689 653.805 74.36 C 663.034 83.808 674.926 105.732 674.927 118.881 L 674.927 238.159 C 674.926 238.264 673.59 239.579 673.484 239.579 L 649.93 239.579 L 649.921 239.569 L 649.921 218.743 L 634.836 228.977 C 590.226 255.483 531.195 229.355 521.542 179.022 C 509.727 117.414 575.997 69.438 632.298 99.315 C 633.943 100.187 645.518 108.582 646.075 107.985 C 640.999 87.245 616.944 74.058 596.091 75.809 L 596.091 52.143 L 610.031 52.143 Z M 382.645 75.799 C 384.231 75.534 385.221 76.547 386.413 77.295 C 393.441 81.754 400.777 89.242 407.642 94.259 L 407.642 239.569 L 382.645 239.569 L 382.645 75.799 Z M 121.62 8.586 C 127.062 8.586 142.53 15.033 147.741 17.892 C 197.504 45.165 198.629 117.205 149.904 146.248 C 142.963 150.385 126.6 157.21 118.735 157.21 L 26.439 157.21 C 26.334 157.21 24.999 158.525 24.997 158.63 L 24.997 238.149 C 24.997 238.253 23.66 239.568 23.555 239.568 L 0 239.568 L 0.48 8.586 L 121.62 8.586 Z M 233.625 92.838 C 237.759 91.513 241.22 87.547 244.854 85.436 C 284.907 62.129 337.064 78.752 354.273 121.257 C 355.812 125.063 359.581 136.148 359.581 139.697 L 359.581 239.568 L 334.584 239.568 L 334.584 143.484 C 334.584 116.438 304.346 96.208 278.359 98.537 C 258.871 100.279 233.635 120.244 233.635 140.644 L 233.635 228.682 C 233.635 228.786 232.298 230.103 232.192 230.103 L 210.08 230.103 C 209.974 230.103 208.638 228.786 208.638 228.682 L 208.638 8.586 L 233.625 8.586 L 233.625 92.838 Z M 705.183 112.698 C 726.045 75.931 773.81 63.908 810.401 85.814 C 864.414 118.151 842.426 184.569 847.06 236.303 C 847.271 237.269 846.367 239.568 845.569 239.568 L 822.496 239.568 C 822.39 239.568 821.055 238.253 821.054 238.149 L 821.054 139.697 C 821.054 130.335 809.17 114.27 801.748 108.533 C 771.848 85.454 720.104 105.684 720.104 143.484 L 720.104 239.568 L 696.55 239.568 C 696.444 239.568 695.108 238.253 695.107 238.149 L 695.107 143.484 C 695.107 135.295 701.029 120.016 705.183 112.698 Z M 601.359 215.894 C 668.139 209.532 659.111 107.626 591.072 113.94 C 523.532 120.206 532.608 222.444 601.359 215.894 Z M 24.997 131.177 C 24.997 131.281 26.334 132.598 26.439 132.598 L 119.697 132.598 C 123.966 132.598 132.647 128.678 136.541 126.463 C 169.316 107.823 170.998 60.122 138.127 40.611 C 134.31 38.349 121.774 33.2 117.774 33.199 L 24.997 33.199 L 24.997 131.177 Z M 387.952 41.709 C 389.933 41.321 418.448 60.396 421.996 63.075 C 423.044 63.87 426.197 66.435 425.909 67.723 C 425.659 68.83 406.387 77.614 405.229 77.615 C 404.076 77.615 385.376 66.208 384.771 65.186 L 384.771 65.195 C 382.905 62.053 387.645 48.544 386.491 44.085 C 386.462 43.271 387.318 41.833 387.952 41.709 Z M 403.307 55.938 C 402.547 54.3 391.165 46.538 390.337 47.389 C 390.116 50.712 388.135 60.879 389.567 63.293 C 389.964 63.957 402.296 71.613 402.825 71.055 C 401.605 67.145 404.71 58.948 403.307 55.938 Z M 392.779 0 C 394.213 0.02 410.959 10.99 411.325 12.051 C 413.085 17.125 408.893 29.905 410.72 33 L 410.729 33.01 C 411.815 34.846 425.823 41.255 427.381 44.587 C 427.871 45.647 426.737 59.043 426.141 60.435 C 425.708 61.457 426.256 61.93 424.583 61.504 L 370.647 25.626 C 369.917 24.348 370.974 10.508 371.58 9.524 C 372.35 8.264 390.635 -0.038 392.779 0 Z M 407.21 14.285 C 406.383 12.752 394.673 5.302 393.212 6.693 L 393.222 6.693 C 394.25 9.543 391.847 19.359 392.674 20.883 C 393.231 21.905 404.447 29.562 405.21 29.422 C 406.71 29.129 407.652 15.109 407.21 14.285 Z M 388.876 5.737 C 388.04 5.586 378.994 10.185 378.8 10.962 C 378.358 12.751 387.914 18.498 389.366 17.107 L 389.376 17.107 C 388.415 14.778 391.327 6.183 388.876 5.737 Z" fill="currentColor" fill-rule="nonzero"></path>
</svg>