<svg xmlns="http://www.w3.org/2000/svg" width="81.000" height="23.999" viewBox="0 0 81.000 23.999" fill="none">
  <path d="M 70.805 5.947 C 70.813 5.947 70.92 6.052 70.92 6.061 L 70.92 14.186 C 70.92 14.626 71.654 15.675 71.987 15.993 C 73.786 17.71 76.804 17.498 78.197 15.405 C 78.456 15.016 78.868 14.109 78.868 13.658 L 78.868 5.948 L 80.817 5.948 C 80.881 5.948 80.952 6.131 80.936 6.208 C 80.77 10.076 81.142 14.102 80.936 17.951 C 80.777 20.889 79.006 23.346 75.969 23.895 C 75.768 23.931 74.59 24.113 74.589 23.891 L 74.589 22.122 C 77.213 22.223 79.203 20.084 79.021 17.533 C 78.95 17.458 78.125 18.107 77.975 18.195 C 74.785 20.061 70.62 18.663 69.278 15.274 C 69.148 14.946 68.857 14.047 68.856 13.734 L 68.856 5.947 L 70.805 5.947 Z M 36.912 4.143 L 40.733 4.143 L 40.733 6.099 L 36.912 6.099 L 36.833 13.437 C 37.007 15.627 38.984 17.264 41.192 17.158 L 41.192 19.038 C 38.594 19.149 36.036 17.452 35.229 15.016 C 35.15 14.78 34.926 14.007 34.926 13.81 L 34.926 1.134 L 36.912 1.134 L 36.912 4.143 Z M 48.491 4.144 C 49.462 4.144 51.297 5.22 51.971 5.909 C 52.704 6.66 53.649 8.402 53.649 9.447 L 53.649 18.927 C 53.647 18.937 53.544 19.038 53.535 19.039 L 51.663 19.039 L 51.662 19.038 L 51.662 17.384 L 50.463 18.196 C 46.917 20.303 42.224 18.227 41.457 14.227 C 40.518 9.331 45.786 5.519 50.261 7.893 C 50.391 7.962 51.31 8.628 51.356 8.582 C 50.953 6.934 49.04 5.885 47.383 6.024 L 47.383 4.144 L 48.491 4.144 Z M 9.668 0.683 C 10.101 0.683 11.33 1.195 11.744 1.422 C 15.7 3.589 15.789 9.314 11.916 11.622 C 11.364 11.951 10.064 12.493 9.438 12.493 L 2.102 12.493 C 2.093 12.494 1.987 12.598 1.987 12.606 L 1.987 18.926 C 1.987 18.934 1.88 19.038 1.872 19.038 L 0 19.038 L 0.038 0.683 L 9.668 0.683 Z M 18.57 7.378 C 18.899 7.273 19.175 6.957 19.464 6.789 C 22.648 4.937 26.793 6.259 28.161 9.637 C 28.283 9.939 28.583 10.819 28.583 11.102 L 28.583 19.038 L 26.596 19.038 L 26.596 11.402 C 26.595 9.253 24.193 7.646 22.127 7.831 C 20.578 7.969 18.571 9.556 18.571 11.177 L 18.571 18.174 C 18.568 18.185 18.466 18.285 18.457 18.286 L 16.699 18.286 C 16.691 18.286 16.589 18.185 16.585 18.174 L 16.585 0.683 L 18.57 0.683 L 18.57 7.378 Z M 30.416 6.023 C 30.542 6.002 30.621 6.083 30.716 6.143 C 31.274 6.497 31.858 7.092 32.403 7.49 L 32.403 19.038 L 30.416 19.038 L 30.416 6.023 Z M 56.055 8.956 C 57.713 6.034 61.51 5.079 64.419 6.819 C 68.712 9.389 66.964 14.668 67.332 18.779 C 67.349 18.856 67.277 19.038 67.214 19.038 L 65.38 19.038 C 65.371 19.038 65.266 18.935 65.266 18.926 L 65.266 11.102 C 65.265 10.358 64.32 9.081 63.73 8.625 C 61.354 6.791 57.242 8.399 57.241 11.402 L 57.241 19.038 L 55.368 19.038 C 55.357 19.035 55.254 18.934 55.254 18.926 L 55.254 11.402 C 55.254 10.752 55.725 9.537 56.055 8.956 Z M 47.802 17.157 C 53.11 16.652 52.393 8.553 46.984 9.055 C 41.616 9.553 42.337 17.678 47.802 17.157 Z M 1.987 10.425 C 1.989 10.434 2.092 10.536 2.102 10.537 L 9.515 10.537 C 9.854 10.537 10.544 10.226 10.854 10.05 C 13.459 8.569 13.592 4.778 10.979 3.228 C 10.676 3.048 9.681 2.639 9.362 2.639 L 1.987 2.639 L 1.987 10.425 Z M 30.838 3.314 C 30.995 3.284 33.261 4.799 33.544 5.013 C 33.627 5.076 33.878 5.279 33.855 5.382 C 33.836 5.47 32.307 6.166 32.212 6.168 C 32.12 6.168 30.634 5.263 30.585 5.181 L 30.563 5.125 C 30.482 4.8 30.807 3.836 30.722 3.504 C 30.719 3.439 30.787 3.325 30.838 3.314 Z M 31.027 3.766 C 31.01 4.03 30.853 4.838 30.967 5.03 C 31.002 5.085 31.979 5.691 32.021 5.646 C 31.924 5.336 32.17 4.684 32.059 4.445 C 31.998 4.315 31.093 3.698 31.027 3.766 Z M 31.222 0 C 31.336 0.002 32.667 0.874 32.696 0.958 C 32.836 1.361 32.503 2.376 32.648 2.622 L 32.648 2.623 C 32.735 2.769 33.848 3.278 33.973 3.543 C 34.012 3.627 33.921 4.692 33.874 4.803 C 33.84 4.884 33.883 4.922 33.75 4.888 L 29.463 2.036 C 29.405 1.934 29.489 0.835 29.537 0.757 C 29.6 0.656 31.05 -0.002 31.222 0 Z M 31.256 0.532 L 31.257 0.532 C 31.338 0.759 31.148 1.538 31.214 1.659 C 31.258 1.74 32.149 2.349 32.21 2.338 C 32.329 2.315 32.404 1.2 32.369 1.135 C 32.302 1.012 31.372 0.422 31.256 0.532 Z M 30.911 0.456 C 30.842 0.446 30.126 0.81 30.11 0.871 C 30.075 1.013 30.834 1.469 30.95 1.359 L 30.951 1.359 C 30.875 1.174 31.106 0.491 30.911 0.456 Z" fill="currentColor" fill-rule="nonzero"></path>
</svg>