<svg width="32" height="32" viewBox="0 0 32 32" fill="none" xmlns="http://www.w3.org/2000/svg">
<path d="M20.7857 13.6336C21.2271 14.3921 26.9184 17.039 27.5512 18.4153C27.7504 18.8532 27.2895 24.3855 27.0473 24.9603C26.8715 25.3825 27.0942 25.578 26.4145 25.4021L4.50068 10.5839C4.20381 10.0561 4.6335 4.33994 4.87959 3.93332C5.19208 3.41332 12.6217 -0.0155859 13.4928 5.33296e-05C14.0748 0.00787295 20.8794 4.53934 21.0278 4.97724C21.7427 7.0729 20.0396 12.3511 20.7818 13.6297L20.7857 13.6336ZM12.11 7.06508C11.7194 6.10327 12.9029 2.55316 11.9069 2.3694C11.567 2.30684 7.89128 4.20701 7.81315 4.52761C7.63347 5.26657 11.5162 7.63982 12.1061 7.06508H12.11ZM13.6725 2.76429C14.0904 3.94114 13.1139 7.99561 13.4498 8.62509C13.6764 9.04735 18.2349 12.2104 18.5435 12.1517C19.1529 12.0305 19.5357 6.24011 19.356 5.89996C19.0201 5.26657 14.2623 2.18955 13.6686 2.76429H13.6725Z" fill="#26AE68"/>
<path d="M10.3453 26.8817C9.58762 25.5865 11.5129 20.0193 11.0443 18.1818C11.0326 17.8463 11.3802 17.2533 11.6379 17.2026C12.4424 17.0426 24.0256 24.9037 25.4666 26.0078C25.8923 26.3355 27.1732 27.3928 27.0561 27.9233C26.9545 28.3798 19.1244 32.0002 18.6558 32.0002C18.1871 32.0002 10.5913 27.2991 10.3453 26.8778V26.8817ZM17.6794 29.2966C17.1834 27.6854 18.4449 24.3069 17.8747 23.0662C17.5662 22.3913 12.9423 19.1923 12.6064 19.5434C12.5166 20.9127 11.7121 25.1027 12.294 26.0975C12.4541 26.3706 17.4646 29.5268 17.6794 29.2966Z" fill="#26AE68"/>
</svg>
