<svg width="64" height="64" viewBox="0 0 64 64" fill="none" xmlns="http://www.w3.org/2000/svg">
<path d="M56.3905 21.8176C56.0193 22.1056 49.4658 25.7984 49.4658 34.0096C49.4658 43.5072 57.805 46.8672 58.0546 46.9504C58.0161 47.1552 56.7298 51.552 53.6578 56.032C50.9186 59.9744 48.0578 63.9104 43.7058 63.9104C39.3538 63.9104 38.2337 61.3824 33.2097 61.3824C28.3137 61.3824 26.573 63.9936 22.5921 63.9936C18.6113 63.9936 15.8337 60.3456 12.6401 55.8656C8.94095 50.6048 5.95215 42.432 5.95215 34.6752C5.95215 22.2336 14.0417 15.6352 22.0033 15.6352C26.2337 15.6352 29.7601 18.4128 32.4161 18.4128C34.9441 18.4128 38.8866 15.4688 43.6993 15.4688C45.5233 15.4688 52.077 15.6352 56.3905 21.8176ZM41.4145 10.2016C43.4049 7.84 44.813 4.5632 44.813 1.2864C44.813 0.832 44.7746 0.3712 44.6913 0C41.4529 0.1216 37.6002 2.1568 35.277 4.8512C33.453 6.9248 31.7505 10.2016 31.7505 13.5232C31.7505 14.0224 31.8337 14.5216 31.8722 14.6816C32.077 14.72 32.4097 14.7648 32.7425 14.7648C35.6481 14.7648 39.3025 12.8192 41.4145 10.2016Z" fill="black"></path>
</svg>