<svg width="64" height="64" viewBox="0 0 64 64" fill="none" xmlns="http://www.w3.org/2000/svg">
<path fill-rule="evenodd" clip-rule="evenodd" d="M38.9112 44.6916C29.1376 44.6916 27.0886 40.2265 27.0886 36.4411C27.0886 36.27 27.1565 36.106 27.2775 35.985C27.3984 35.8641 27.5625 35.7961 27.7335 35.7961H30.621C30.7744 35.7966 30.9227 35.8519 31.0391 35.9519C31.1555 36.0519 31.2324 36.1902 31.256 36.3418C31.6926 39.2839 32.9875 40.7673 38.9013 40.7673C43.6095 40.7673 45.6089 39.6907 45.6089 37.2101C45.6089 35.7713 45.0383 34.7294 37.7255 33.9902C31.6083 33.3849 27.803 32.0405 27.803 27.1437C27.803 22.6389 31.6033 19.9549 37.9735 19.9549C45.1276 19.9549 48.67 22.4355 49.1165 27.7738C49.1237 27.864 49.1119 27.9548 49.082 28.0402C49.0521 28.1256 49.0047 28.2039 48.9428 28.2699C48.879 28.3371 48.802 28.3902 48.7166 28.4261C48.6312 28.462 48.5393 28.4797 48.4467 28.4783H45.594C45.449 28.4786 45.3082 28.4297 45.1946 28.3396C45.0811 28.2495 45.0015 28.1234 44.9689 27.9822C44.2693 24.8913 42.5825 23.8991 37.9884 23.8991C32.8486 23.8891 32.2483 25.6801 32.2483 27.0197C32.2483 28.647 32.9528 29.1232 39.8886 30.0411C46.8244 30.9589 50.0194 32.2488 50.0194 37.0662C50.0194 41.8836 45.9611 44.7214 38.8814 44.7214L38.9112 44.6916ZM32.0101 62.4529C31.1882 62.4533 30.3807 62.2378 29.6684 61.8277L22.2265 57.4122C21.1103 56.7871 21.656 56.5688 22.0231 56.42C23.2067 56.0481 24.3398 55.5316 25.3968 54.882C25.4851 54.8406 25.5825 54.8225 25.6798 54.8294C25.7771 54.8364 25.8709 54.8681 25.9524 54.9217L31.6827 58.3201C31.7898 58.3762 31.909 58.4055 32.03 58.4055C32.1509 58.4055 32.2701 58.3762 32.3772 58.3201L54.7028 45.4209C54.8074 45.3583 54.8939 45.2696 54.9539 45.1635C55.0139 45.0574 55.0453 44.9375 55.0452 44.8156V19.0668C55.0456 18.943 55.0138 18.8211 54.9529 18.7133C54.892 18.6054 54.8041 18.5153 54.6979 18.4516L32.3723 5.55239C32.2676 5.49137 32.1486 5.45923 32.0275 5.45923C31.9063 5.45923 31.7873 5.49137 31.6827 5.55239L9.35709 18.4516C9.24998 18.5135 9.16103 18.6024 9.0992 18.7095C9.03737 18.8167 9.00482 18.9382 9.00484 19.0618V44.8603C9.00455 44.9821 9.03653 45.1018 9.09753 45.2073C9.15854 45.3127 9.24638 45.4001 9.35213 45.4606L15.4693 48.993C18.7785 50.6352 20.8374 48.6755 20.8374 46.7108V21.2646C20.8367 21.1793 20.8531 21.0948 20.8856 21.0159C20.9181 20.937 20.966 20.8654 21.0266 20.8053C21.0871 20.7452 21.1591 20.6979 21.2382 20.666C21.3173 20.6341 21.402 20.6184 21.4873 20.6197H24.3103C24.3952 20.619 24.4793 20.6352 24.5579 20.6674C24.6364 20.6996 24.7078 20.7471 24.7678 20.8071C24.8278 20.8671 24.8753 20.9385 24.9075 21.017C24.9397 21.0956 24.9559 21.1798 24.9552 21.2646V46.7208C24.9552 51.1511 22.5391 53.6665 18.3419 53.6665C17.052 53.6665 16.03 53.6665 13.1921 52.2674L7.30314 48.9136C6.59101 48.4984 6.00008 47.9039 5.58923 47.1892C5.17837 46.4746 4.96192 45.6648 4.96143 44.8405L4.96143 19.042C4.95992 18.2173 5.17552 17.4067 5.58658 16.6917C5.99763 15.9767 6.58966 15.3825 7.30314 14.9688L29.6634 2.0696C30.3841 1.67662 31.1918 1.4707 32.0126 1.4707C32.8334 1.4707 33.6411 1.67662 34.3617 2.0696L56.6873 14.9688C57.4056 15.3841 58.0014 15.9818 58.4144 16.7015C58.8274 17.4211 59.0428 18.2371 59.039 19.0668V44.8653C59.037 45.6893 58.8199 46.4985 58.4092 47.2129C57.9985 47.9273 57.4084 48.5221 56.6972 48.9384L34.3717 61.8377C33.656 62.2483 32.8451 62.4638 32.02 62.4628L32.0101 62.4529Z" fill="black"></path>
</svg>