<svg width="64" height="64" viewBox="0 0 64 64" fill="none" xmlns="http://www.w3.org/2000/svg">
<g clip-path="url(#clip0_2456_4181)">
<path d="M20.4907 0V21.4267H41.2241C41.9707 21.4267 42.5627 22.056 42.5627 22.7147V43.52H63.9627V1.33867C63.9627 0.98363 63.8217 0.643135 63.5706 0.392086C63.3196 0.141038 62.9791 0 62.6241 0L20.4907 0Z" fill="black"></path>
<path opacity="0.3" d="M20.4908 0V21.4267H41.2241C41.9708 21.4267 42.5628 22.056 42.5628 22.7147V43.52H63.9628V1.33867C63.9628 0.98363 63.8217 0.643135 63.5707 0.392086C63.3196 0.141038 62.9791 0 62.6241 0L20.4908 0ZM19.1574 1.33333L0.229425 20.2853C0.136176 20.3791 0.0727882 20.4984 0.0472598 20.6281C0.0217314 20.7579 0.0352065 20.8923 0.0859847 21.0144C0.136763 21.1365 0.222569 21.2408 0.332575 21.3142C0.442581 21.3875 0.571857 21.4267 0.704091 21.4267H19.1574V1.33333ZM20.4908 22.76V42.1813C20.4908 42.9227 21.0881 43.52 21.8294 43.52H41.2294V24.048C41.2294 23.3067 40.6321 22.7627 39.8908 22.76H20.4908ZM42.5628 44.8533V63.328C42.5628 63.9253 43.2854 64.224 43.7094 63.8027L62.6294 44.8533H42.5628Z" fill="black"></path>
</g>
<defs>
<clipPath id="clip0_2456_4181">
<rect width="64" height="64" fill="white"></rect>
</clipPath>
</defs>
</svg>