<svg width="64" height="64" viewBox="0 0 64 64" fill="none" xmlns="http://www.w3.org/2000/svg">
<path d="M32.375 33.9125L28.275 45.875H28.2625L25.0875 55.0125C25.3125 55.075 25.525 55.125 25.75 55.1875H25.7875C27.7625 55.7125 29.8375 56 31.975 56C33.0375 56 34.075 55.9375 35.0875 55.775C36.4875 55.6 37.8375 55.3 39.15 54.8875C39.475 54.7875 39.8 54.675 40.125 54.5625C39.775 53.8125 39.025 52.15 38.9875 52.075L32.375 33.9125ZM10.1 22.5625C8.85 25.3875 8 28.8625 8 32C8 32.7875 8.0375 33.575 8.1125 34.35C8.975 43.25 14.725 50.725 22.625 54.0875C22.95 54.225 23.2875 54.3625 23.625 54.4875L12 22.575C11 22.5375 10.8125 22.6 10.1 22.5625Z" fill="black"></path>
<path d="M53.775 21.925C53.2375 20.7625 52.6 19.65 51.8875 18.6C51.6875 18.3 51.4625 18 51.25 17.7C48.5625 14.1 44.9 11.275 40.6375 9.625C37.9625 8.575 35.0375 8 31.9875 8C24.45 8 17.7125 11.5 13.3125 16.9625C12.5 17.9625 11.775 19.0375 11.125 20.1625C12.9 20.175 15.1 20.175 15.35 20.175C17.6125 20.175 21.1 19.9 21.1 19.9C22.275 19.825 22.4 21.5375 21.2375 21.675C21.2375 21.675 20.0625 21.8125 18.7625 21.875L26.625 45.25L31.35 31.0875L28 21.8875C26.825 21.825 25.7375 21.6875 25.7375 21.6875C24.5625 21.625 24.7125 19.8375 25.8625 19.9125C25.8625 19.9125 29.425 20.1875 31.55 20.1875C33.8125 20.1875 37.3 19.9125 37.3 19.9125C38.4625 19.8375 38.6125 21.55 37.4375 21.6875C37.4375 21.6875 36.275 21.825 34.975 21.8875L42.7625 45.0875L44.925 37.8875C46.0125 35.0875 46.5625 32.775 46.5625 30.925C46.5625 28.2625 45.6 26.4125 44.775 24.975C43.6875 23.1875 42.6625 21.6875 42.6625 19.925C42.6625 17.9375 44.1625 16.0875 46.2875 16.0875H46.5625C49.8375 16 50.9125 19.25 51.05 21.4625V21.5375C51.1 22.4375 51.0625 23.1 51.0625 23.8875C51.0625 26.0625 50.65 28.525 49.425 31.6125L44.55 45.7125L41.7625 53.925C41.9875 53.825 42.2 53.725 42.425 53.6125C49.5125 50.1875 54.675 43.3625 55.7625 35.275C55.925 34.2125 56 33.125 56 32.025C56 28.4125 55.2 24.9875 53.775 21.925Z" fill="black"></path>
</svg>