<svg width="64" height="64" viewBox="0 0 64 64" fill="none" xmlns="http://www.w3.org/2000/svg">
<g clip-path="url(#clip0_2456_4119)">
<path d="M51.9961 13.0207C52.4345 13.0597 52.8627 13.1949 53.2451 13.4221C53.678 13.6792 54.0235 14.0318 54.2646 14.4367C54.3348 14.555 54.3961 14.6788 54.4492 14.8049C54.5023 14.9309 54.546 15.0604 54.582 15.1926C54.7235 15.7269 54.7165 16.3021 54.54 16.8488C54.4765 17.045 54.3914 17.2367 54.2842 17.4221C53.8332 18.2026 53.3806 18.9853 52.9268 19.7658C52.2963 20.8533 51.6656 21.941 51.0352 23.0285C50.3905 24.1424 49.7433 25.2554 49.0986 26.3694C49.0864 26.3895 49.0757 26.4117 49.0635 26.4319C50.4706 27.3106 51.8071 28.2936 53.0576 29.3733C53.6348 29.8703 54.1942 30.3894 54.7344 30.927C56.0219 32.2061 57.201 33.5947 58.2568 35.0764C59.118 36.2854 59.8986 37.5568 60.5898 38.8811C61.1272 39.9123 61.6108 40.9769 62.0361 42.0705C62.5393 43.3621 62.9617 44.6963 63.2969 46.0627C63.4877 46.8447 63.6512 47.6384 63.7832 48.4406C63.805 48.5698 63.8258 48.6997 63.8467 48.8303L63.8418 48.8332C63.913 49.2989 63.9732 49.7686 64.0244 50.2404H0.109375C0.160634 49.7685 0.221814 49.299 0.293945 48.8332C0.31386 48.7041 0.333658 48.5727 0.355469 48.4436C0.489343 47.6397 0.651946 46.8477 0.842773 46.0656C1.17795 44.6993 1.59934 43.365 2.10254 42.0735C2.52788 40.9798 3.01246 39.9153 3.5498 38.884C4.2391 37.5582 5.01978 36.2883 5.88184 35.0793C6.93953 33.5977 8.11781 32.209 9.4043 30.9299C10.0499 30.2865 10.7242 29.6706 11.4238 29.0832C12.5917 28.1033 13.83 27.2073 15.1309 26.3986C15.1261 26.3894 15.1189 26.3795 15.1143 26.3703C14.4696 25.2564 13.8233 24.1434 13.1787 23.0295C12.5484 21.9422 11.9174 20.8542 11.2861 19.7668C10.8353 18.9865 10.3824 18.2043 9.92871 17.424C9.82155 17.2388 9.73737 17.047 9.67285 16.8508C9.4973 16.304 9.49039 15.7279 9.63184 15.1936C9.66599 15.0614 9.71159 14.9318 9.76465 14.8059C9.81676 14.68 9.87917 14.5568 9.94922 14.4387C10.1923 14.0337 10.5349 13.681 10.9678 13.424C11.3512 13.1952 11.7793 13.0591 12.2178 13.0217C12.4019 13.0061 12.5873 13.0079 12.7705 13.0266C12.9234 13.0421 13.0746 13.0707 13.2246 13.1096C13.7581 13.2513 14.2542 13.5443 14.6396 13.968C14.7781 14.1205 14.9026 14.2887 15.0107 14.4738C15.4617 15.2543 15.9144 16.0371 16.3682 16.8176C16.9986 17.905 17.6294 18.9929 18.2598 20.0803C18.9045 21.1943 19.5516 22.3071 20.1963 23.4211C20.2607 23.5346 20.3282 23.6484 20.3936 23.7619C20.7581 23.6186 21.1259 23.482 21.4971 23.3527C24.7103 22.234 28.1547 21.6102 31.7393 21.5744C31.8502 21.5729 31.9593 21.5735 32.0693 21.5735C36.1011 21.5735 39.9586 22.3146 43.5137 23.6701C43.6113 23.7075 43.7081 23.7464 43.8057 23.7854C43.8759 23.6624 43.9474 23.5405 44.0176 23.4192C44.6622 22.3052 45.3095 21.1923 45.9541 20.0783L47.8457 16.8156C48.2975 16.0354 48.7504 15.2531 49.2031 14.4729C49.3104 14.2877 49.4357 14.1186 49.5742 13.966C49.9597 13.5424 50.4557 13.2494 50.9893 13.1076C51.1393 13.0687 51.2905 13.0402 51.4424 13.0246C51.6265 13.0059 51.8119 13.0052 51.9961 13.0207ZM19.2979 35.6897C18.0189 34.8383 16.1323 35.4271 15.082 37.0051C14.0328 38.5834 14.219 40.5531 15.4971 41.4045C16.7761 42.2557 18.6637 41.6663 19.7129 40.0881C20.7627 38.51 20.5765 36.5411 19.2979 35.6897ZM49.1074 37.0012C48.0582 35.4232 46.1706 34.8338 44.8926 35.6848C43.6136 36.5362 43.4276 38.506 44.4775 40.0842C45.5268 41.6624 47.4143 42.2519 48.6924 41.4006C49.9712 40.5492 50.1575 38.5793 49.1074 37.0012Z" fill="black"></path>
</g>
<defs>
<clipPath id="clip0_2456_4119">
<rect width="64" height="64" fill="white"></rect>
</clipPath>
</defs>
</svg>