<svg width="1019" height="302" viewBox="0 0 1019 302" fill="none" xmlns="http://www.w3.org/2000/svg">
<g clip-path="url(#clip0_4049_703)">
<path d="M992.186 74.8507H1016.7C1017.5 74.8507 1018.4 77.1517 1018.19 78.1173C1016.11 126.784 1020.79 177.449 1018.19 225.879C1016.2 262.846 993.916 293.773 955.709 300.674C953.19 301.128 938.346 303.429 938.346 300.617V278.371C971.361 279.64 996.396 252.726 994.099 220.625C993.213 219.67 982.83 227.849 980.937 228.956C940.816 252.433 888.419 234.844 871.536 192.207C869.892 188.07 866.229 176.748 866.229 172.819V74.8419H890.746C890.855 74.8451 892.188 76.1578 892.188 76.2618V178.5C892.188 184.038 901.427 197.243 905.619 201.247C928.251 222.85 966.217 220.19 983.744 193.855C987.003 188.951 992.176 177.534 992.176 171.863V74.8322L992.186 74.8507ZM464.366 52.132H512.438V76.7443H464.366L463.366 169.081C465.558 196.647 490.421 217.228 518.206 215.902V239.568C485.518 240.96 453.338 219.604 443.186 188.951C442.205 185.998 439.369 176.257 439.369 173.776V14.2658H464.366V52.132ZM610.031 52.1427C622.241 52.1428 645.325 65.6892 653.805 74.3605C663.034 83.8079 674.926 105.732 674.927 118.881V238.159C674.926 238.264 673.59 239.579 673.484 239.579H649.93L649.921 239.569V218.743L634.836 228.977C590.226 255.483 531.195 229.355 521.542 179.022C509.727 117.414 575.997 69.4384 632.298 99.3146C633.943 100.187 645.518 108.582 646.075 107.985C640.999 87.2445 616.944 74.0576 596.091 75.8087V52.1427H610.031ZM382.645 75.799C384.231 75.5339 385.221 76.5472 386.413 77.2951C393.441 81.7538 400.777 89.2417 407.642 94.2589V239.569H382.645V75.799ZM121.62 8.58607C127.062 8.58639 142.53 15.0328 147.741 17.8917C197.504 45.1647 198.629 117.205 149.904 146.248C142.963 150.385 126.6 157.21 118.735 157.21H26.4395C26.3338 157.21 24.9986 158.525 24.9971 158.63V238.149C24.9971 238.253 23.6604 239.568 23.5547 239.568H0L0.480469 8.58607H121.62ZM233.625 92.838C237.759 91.5127 241.22 87.5467 244.854 85.4357C284.907 62.1292 337.064 78.7524 354.273 121.257C355.812 125.063 359.581 136.148 359.581 139.697V239.568H334.584V143.484C334.584 116.438 304.346 96.2085 278.359 98.5372C258.871 100.279 233.635 120.244 233.635 140.644V228.682C233.635 228.786 232.298 230.103 232.192 230.103H210.08C209.974 230.103 208.638 228.786 208.638 228.682V8.58607H233.625V92.838ZM705.183 112.698C726.045 75.9305 773.81 63.9081 810.401 85.8136C864.414 118.151 842.426 184.569 847.06 236.303C847.271 237.269 846.367 239.568 845.569 239.568H822.496C822.39 239.568 821.055 238.253 821.054 238.149V139.697C821.054 130.335 809.17 114.27 801.748 108.533C771.848 85.4541 720.104 105.684 720.104 143.484V239.568H696.55C696.444 239.568 695.108 238.253 695.107 238.149V143.484C695.107 135.295 701.029 120.016 705.183 112.698ZM601.359 215.894C668.139 209.532 659.111 107.626 591.072 113.94C523.532 120.206 532.608 222.444 601.359 215.894ZM24.9971 131.177C24.9971 131.281 26.3337 132.598 26.4395 132.598H119.697C123.966 132.598 132.647 128.678 136.541 126.463C169.316 107.823 170.998 60.1219 138.127 40.6115C134.31 38.349 121.774 33.1997 117.774 33.1993H24.9971V131.177ZM387.952 41.7091C389.933 41.321 418.448 60.3963 421.996 63.0753C423.044 63.8705 426.197 66.4353 425.909 67.7228C425.659 68.8303 406.387 77.6136 405.229 77.6154C404.076 77.6154 385.376 66.2081 384.771 65.1857V65.1954C382.905 62.0526 387.645 48.5438 386.491 44.0851C386.462 43.2711 387.318 41.8325 387.952 41.7091ZM403.307 55.9376C402.547 54.3 391.165 46.5381 390.337 47.3888C390.116 50.7115 388.135 60.8791 389.567 63.2931C389.964 63.957 402.296 71.6133 402.825 71.0548C401.605 67.1452 404.71 58.9482 403.307 55.9376ZM392.779 0.000129119C394.213 0.0197076 410.959 10.9901 411.325 12.0509C413.085 17.1249 408.893 29.9045 410.72 33.0001L410.729 33.0099C411.815 34.8463 425.823 41.2548 427.381 44.587C427.871 45.6473 426.737 59.0431 426.141 60.4347C425.708 61.4569 426.256 61.93 424.583 61.504L370.647 25.6261C369.917 24.3481 370.974 10.5081 371.58 9.52357C372.35 8.26419 390.635 -0.0377359 392.779 0.000129119ZM407.21 14.2853C406.383 12.7517 394.673 5.30191 393.212 6.69349H393.222C394.25 9.54342 391.847 19.3585 392.674 20.8829C393.231 21.9052 404.447 29.5617 405.21 29.422C406.71 29.1285 407.652 15.1091 407.21 14.2853ZM388.876 5.73743C388.04 5.58599 378.994 10.1849 378.8 10.962C378.358 12.7512 387.914 18.4977 389.366 17.1066H389.376C388.415 14.7779 391.327 6.1829 388.876 5.73743Z" fill="white"></path>
</g>
<defs>
<clipPath id="clip0_4049_703">
<rect width="1019" height="302" fill="white"></rect>
</clipPath>
</defs>
</svg>