<svg width="64" height="64" viewBox="0 0 64 64" fill="none" xmlns="http://www.w3.org/2000/svg">
<path d="M38.6401 55.8315L52.9894 52.7221C52.9894 52.7221 47.8134 17.6875 47.7707 17.4555C47.7281 17.2261 47.5414 17.0715 47.3494 17.0715C47.1574 17.0715 43.5121 16.8021 43.5121 16.8021C43.5121 16.8021 40.9814 14.2715 40.6747 14.0021C40.6027 13.9248 40.5227 13.8875 40.4454 13.8475L38.6401 55.8315ZM39.8294 13.7728C39.7867 13.7728 39.7147 13.8101 39.6774 13.8101C39.6347 13.8101 39.0987 13.9675 38.2561 14.2315C37.4081 11.7808 35.9121 9.51681 33.2667 9.51681H33.0374C32.2667 8.55415 31.3494 8.13281 30.5414 8.13281C24.3654 8.13281 21.4054 15.8448 20.4881 19.7568C18.1094 20.4901 16.3867 21.0261 16.1867 21.1035C14.8427 21.5248 14.8081 21.5621 14.6561 22.8315C14.5041 23.7488 11.0107 50.8022 11.0107 50.8022L37.9894 55.8661L39.8294 13.7728ZM32.8027 15.6501V15.9221C31.3121 16.3835 29.6614 16.8821 28.0481 17.3808C28.9707 13.8528 30.6934 12.1221 32.1894 11.4688C32.5787 12.4688 32.8027 13.8101 32.8027 15.6501ZM30.3494 9.78348C30.6161 9.78348 30.8854 9.85815 31.1574 10.0555C29.2054 10.9728 27.0534 13.3141 26.1681 17.9968C24.9187 18.3965 23.6644 18.7805 22.4054 19.1488C23.4427 15.5781 25.9387 9.78348 30.3494 9.78348ZM31.4214 30.6155C31.4214 30.6155 29.8107 29.7755 27.8961 29.7755C25.0161 29.7755 24.9014 31.5781 24.9014 32.0395C24.9014 34.4955 31.3494 35.4528 31.3494 41.2475C31.3494 45.8128 28.4694 48.7301 24.5574 48.7301C19.8747 48.7301 17.4961 45.8128 17.4961 45.8128L18.7627 41.6688C18.7627 41.6688 21.2214 43.7808 23.2881 43.7808C23.5363 43.7909 23.784 43.7507 24.0164 43.6629C24.2487 43.575 24.461 43.4412 24.6405 43.2694C24.8199 43.0977 24.963 42.8915 25.0609 42.6632C25.1589 42.4349 25.2099 42.1892 25.2107 41.9408C25.2107 38.7168 19.9147 38.5595 19.9147 33.2688C19.9147 28.8181 23.1014 24.4821 29.5867 24.4821C32.0827 24.4821 33.3067 25.2075 33.3067 25.2075L31.4214 30.6155ZM33.8801 11.1995C35.2614 11.3595 36.1467 12.9275 36.7174 14.6955C36.0294 14.9275 35.2587 15.1568 34.4161 15.4235V14.9248C34.4161 13.4288 34.2241 12.1995 33.8801 11.1995Z" fill="black"></path>
</svg>