<svg width="64" height="64" viewBox="0 0 64 64" fill="none" xmlns="http://www.w3.org/2000/svg">
<g clip-path="url(#clip0_2456_4174)">
<path d="M63.1962 29.3275C62.7862 28.8862 59.8437 25.2913 58.2575 23.3538C57.4137 22.3238 56.7475 21.51 56.4675 21.1725L56.445 21.145L56.42 21.1187C55.7675 20.39 54.84 19.555 53.4475 19.555C53.2211 19.5579 52.9951 19.5763 52.7712 19.61C52.725 19.6163 52.6775 19.6237 52.6275 19.6287C52.3212 19.6625 51.37 19.8162 49.11 20.1887C47.36 20.475 44.7212 20.91 44.3212 20.9475L44.2325 20.955L44.1462 20.9713C42.8962 21.1938 42.0687 21.7488 41.7012 22.62C41.5075 23.08 41.2987 24.0138 42.0687 25.1025C42.26 25.38 42.9225 26.2975 44.0612 27.8738C44.8187 28.9237 45.67 30.1012 46.405 31.1238L32.4875 34.375L18.8325 12.0063L18.8075 11.9637L18.7787 11.9225L18.7237 11.8413C18.165 11.0213 17.47 10 15.4625 10C15.3212 10 15.1737 10 15.0087 10.0138C14.4337 10.045 12.3312 10.21 9.8975 10.4025C7.21125 10.6138 3.535 10.9025 3.0575 10.915H2.96625L2.8675 10.925C1.725 11.0363 0.896245 11.5 0.404995 12.3C-0.413755 13.6363 0.227495 15.1363 0.437495 15.6287C0.858745 16.625 4.69499 24.7125 8.07874 31.8512C10.3287 36.5938 12.6512 41.4975 12.8412 41.9325C13.1754 42.7451 13.7474 43.4377 14.4822 43.9193C15.217 44.4009 16.0803 44.6491 16.9587 44.6312C17.3733 44.6294 17.7865 44.5833 18.1912 44.4938H18.2175L18.2425 44.4875C19.975 44.065 25.4712 42.67 29.3925 41.6637C29.63 42.0788 29.88 42.5175 30.1425 42.9688C32.8837 47.7812 34.88 51.2625 35.5375 52.1512C35.875 52.625 36.875 54 38.7575 54C39.44 54 40.065 53.825 40.725 53.6387L40.9162 53.585H40.9237H40.9312C42.2475 53.21 59.7675 47.065 60.665 46.6662L60.6925 46.6538C61.3725 46.3525 62.4 45.8975 62.715 44.7287C62.9212 43.9637 62.7375 43.1875 62.1675 42.4212L62.1587 42.41L62.15 42.3988C62.0437 42.2612 61.65 41.7475 61.1162 41.0363C59.975 39.5275 58.1312 37.09 56.5112 34.9688C58.6825 34.4062 61.3612 33.705 61.9337 33.525C63.3675 33.0963 63.8012 32.1887 63.9337 31.6838C64.0325 31.29 64.1612 30.2837 63.1962 29.3275ZM23.1962 36.6012C20.97 37.1225 19.4187 37.4862 18.46 37.7137C17.6262 36.0462 15.9925 32.7575 14.3975 29.5475C10.68 22.0575 8.76 18.2012 7.75 16.185L8.76875 16.0975C10.4362 15.9537 12.72 15.7575 13.9912 15.6512C16.0862 19.1838 23.2812 31.3138 26.0287 35.9388L23.1962 36.6012ZM45.4662 44.9313C42.44 45.9313 40.8 46.4775 39.9137 46.7738C39.1262 45.4813 37.3937 42.5838 35.855 40L50.3175 36.315C50.9425 37.1662 52.1387 38.78 54.5 41.9313C52.2412 42.6863 48.475 43.9338 45.4662 44.9313ZM52.45 29.7275L49.48 25.7862C51.1887 25.4875 52.1725 25.315 52.7487 25.2113L54.2487 27.0713L55.7412 28.9237C54.7162 29.1725 53.5237 29.4638 52.45 29.7275Z" fill="black"></path>
</g>
<defs>
<clipPath id="clip0_2456_4174">
<rect width="64" height="64" fill="white"></rect>
</clipPath>
</defs>
</svg>