<svg width="64" height="64" viewBox="0 0 64 64" fill="none" xmlns="http://www.w3.org/2000/svg">
<path d="M39.25 4.54801C36.9263 4.16551 33.525 3.98926 31.2163 4.00051C29.0523 4.00301 26.8923 4.18615 24.7588 4.54801C19.0413 5.54801 18 7.63551 18 11.4905V16.0005H32V18.0005H13.4525C8.25752 18.0005 4.04127 24.2093 4.00002 31.8905C4.00002 31.9268 4.00002 31.963 4.00002 32.0005C3.99822 33.3435 4.12927 34.6833 4.39127 36.0005C5.55252 41.7855 9.17002 46.0005 13.4525 46.0005H16V39.2505C16 35.338 18.605 31.7568 22.875 30.988L24.1088 30.8343H39.25C39.886 30.8367 40.5193 30.7526 41.1325 30.5843C42.5346 30.2099 43.7729 29.3811 44.6537 28.2278C45.5345 27.0745 46.0079 25.6617 46 24.2105V11.4905C46 7.87551 42.915 5.14926 39.25 4.54801ZM24.3663 13.188C23.8619 13.1897 23.3684 13.0417 22.9484 12.7625C22.5283 12.4834 22.2006 12.0858 22.0068 11.6202C21.813 11.1546 21.7618 10.6419 21.8598 10.1472C21.9578 9.65243 22.2004 9.19793 22.5571 8.8413C22.9137 8.48467 23.3682 8.24199 23.8629 8.14402C24.3577 8.04605 24.8704 8.09721 25.336 8.29102C25.8016 8.48482 26.1992 8.81253 26.4783 9.2326C26.7574 9.65267 26.9055 10.1462 26.9038 10.6505C26.9039 10.9838 26.8384 11.3138 26.7109 11.6218C26.5835 11.9297 26.3966 12.2095 26.1609 12.4452C25.9253 12.6808 25.6455 12.8677 25.3375 12.9952C25.0296 13.1226 24.6995 13.1882 24.3663 13.188Z" fill="black"></path>
<path d="M59.41 27.125C58.0725 21.7988 54.6087 18 50.5475 18H48.3338V23.9313C48.3338 28.8775 45.0837 32.4587 41.1162 33.0725C40.7155 33.1346 40.3106 33.166 39.905 33.1663H24.76C24.1176 33.1656 23.4778 33.2476 22.8563 33.41C20.0675 34.1425 18 36.4625 18 39.4713V52.1925C18 55.8175 21.6425 57.9425 25.2162 58.9813C29.4925 60.225 34.1512 60.45 39.2687 58.9813C42.6675 58.01 46 56.0463 46 52.1925V48H32V46H50.5475C54.2275 46 57.4162 42.8838 58.9787 38.3363C59.6649 36.2946 60.01 34.1538 60 32C60.0035 30.357 59.8054 28.7197 59.41 27.125ZM39.5638 50.5C40.0681 50.4983 40.5616 50.6464 40.9817 50.9255C41.4017 51.2046 41.7294 51.6022 41.9232 52.0678C42.117 52.5334 42.1682 53.0461 42.0702 53.5408C41.9723 54.0356 41.7296 54.4901 41.373 54.8467C41.0163 55.2033 40.5618 55.446 40.0671 55.544C39.5724 55.642 39.0597 55.5908 38.594 55.397C38.1284 55.2032 37.7308 54.8755 37.4517 54.4554C37.1726 54.0353 37.0245 53.5418 37.0262 53.0375C37.0261 52.7042 37.0916 52.3742 37.2191 52.0662C37.3465 51.7583 37.5334 51.4785 37.7691 51.2429C38.0048 51.0072 38.2846 50.8203 38.5925 50.6928C38.9004 50.5654 39.2305 50.4998 39.5638 50.5Z" fill="black"></path>
</svg>